<svg width="141" height="67" viewBox="0 0 141 67" fill="none" xmlns="http://www.w3.org/2000/svg">
<path d="M75.0856 20.7536H67.5883V46.9577H75.0856V20.7536Z" fill="#32325D"/>
<path fill-rule="evenodd" clip-rule="evenodd" d="M59.5533 22.9697L59.0754 20.7536H52.6236V46.9577H60.091V29.1988C61.8533 26.8929 64.8403 27.3121 65.7662 27.6416V20.7536C64.8104 20.3942 61.3156 19.7354 59.5533 22.9697Z" fill="#32325D"/>
<path fill-rule="evenodd" clip-rule="evenodd" d="M124.4 33.9605C124.4 26.2939 120.697 20.2445 113.617 20.2445C106.508 20.2445 102.207 26.2939 102.207 33.9006C102.207 42.9148 107.285 47.4668 114.573 47.4668C118.128 47.4668 120.816 46.6582 122.847 45.5202V39.5307C120.816 40.5489 118.486 41.1778 115.529 41.1778C112.632 41.1778 110.063 40.1596 109.734 36.6258H124.341C124.341 36.2365 124.4 34.6792 124.4 33.9605ZM109.645 31.1155C109.645 27.7314 111.706 26.3239 113.588 26.3239C115.41 26.3239 117.351 27.7314 117.351 31.1155H109.645Z" fill="#32325D"/>
<path fill-rule="evenodd" clip-rule="evenodd" d="M90.6776 20.2445C87.7503 20.2445 85.8685 21.6221 84.8231 22.5804L84.4348 20.7237H77.8635V55.6425L85.3309 54.0553L85.3607 45.5801C86.4361 46.3588 88.0192 47.4668 90.6477 47.4668C95.9944 47.4668 100.863 43.1544 100.863 33.661C100.833 24.9762 95.9048 20.2445 90.6776 20.2445ZM88.8854 40.8784C87.1231 40.8784 86.0776 40.2495 85.3607 39.4708L85.3309 28.3603C86.1075 27.4918 87.1828 26.8929 88.8854 26.8929C91.6035 26.8929 93.4853 29.9475 93.4853 33.8706C93.4853 37.8836 91.6334 40.8784 88.8854 40.8784Z" fill="#32325D"/>
<path fill-rule="evenodd" clip-rule="evenodd" d="M24.4266 28.3603C24.4266 27.1923 25.3825 26.7431 26.9655 26.7431C29.2356 26.7431 32.1031 27.4319 34.3732 28.6598V21.6221C31.894 20.6338 29.4447 20.2445 26.9655 20.2445C20.902 20.2445 16.8696 23.4189 16.8696 28.7197C16.8696 36.9852 28.2201 35.6675 28.2201 39.2312C28.2201 40.6088 27.0253 41.058 25.3526 41.058C22.8734 41.058 19.7072 40.0398 17.1982 38.6622V45.7897C19.976 46.9876 22.7838 47.4968 25.3526 47.4968C31.5655 47.4968 35.8368 44.4122 35.8368 39.0516C35.807 30.1272 24.4266 31.7144 24.4266 28.3603Z" fill="#32325D"/>
<path fill-rule="evenodd" clip-rule="evenodd" d="M44.6185 14.255L37.3303 15.8123L37.3004 39.8003C37.3004 44.2325 40.616 47.4968 45.0367 47.4968C47.486 47.4968 49.2782 47.0476 50.2639 46.5085V40.4292C49.3081 40.8185 44.5886 42.1961 44.5886 37.7638V27.1324H50.2639V20.7536H44.5886L44.6185 14.255Z" fill="#32325D"/>
<path fill-rule="evenodd" clip-rule="evenodd" d="M67.5883 18.4776L75.0856 16.8604V10.7811L67.5883 12.3683V18.4776Z" fill="#32325D"/>
</svg>
