<svg width="120" height="41" viewBox="0 0 120 41" fill="none" xmlns="http://www.w3.org/2000/svg">
<g clip-path="url(#clip0_1_235)">
<path d="M116.262 24.7258L119.591 26.9616C118.511 28.565 115.927 31.3157 111.459 31.3157C105.911 31.3157 101.779 26.9911 101.779 21.4897C101.779 15.6353 105.954 11.6637 110.992 11.6637C116.058 11.6637 118.54 15.7235 119.343 17.9152L119.781 19.0332L106.728 24.4757C107.721 26.4468 109.269 27.4471 111.459 27.4471C113.649 27.4471 115.167 26.3585 116.262 24.7258ZM106.027 21.1808L114.744 17.5328C114.262 16.3119 112.831 15.444 111.123 15.444C108.948 15.444 105.925 17.3857 106.027 21.1808Z" fill="#FF302F"/>
<path d="M72.4465 21.4897C72.4465 27.1529 68.0663 31.3157 62.6934 31.3157C57.3204 31.3157 52.9403 27.1529 52.9403 21.4897C52.9403 15.7971 57.3204 11.6637 62.6934 11.6637C68.0663 11.6637 72.4465 15.7824 72.4465 21.4897ZM68.1685 21.4897C68.1685 17.9594 65.6281 15.5323 62.6788 15.5323C59.7295 15.5323 57.189 17.9594 57.189 21.4897C57.189 24.9906 59.7295 27.4471 62.6788 27.4471C65.6427 27.4471 68.1685 24.9758 68.1685 21.4897Z" fill="#FFBA40"/>
<path d="M88.8573 12.4285H92.9162V29.9035C92.9162 37.1553 88.6675 40.1414 83.645 40.1414C78.9145 40.1414 76.0674 36.9347 75.0015 34.3311L78.7246 32.7719C79.3963 34.3752 81.0169 36.2728 83.645 36.2728C86.8717 36.2728 88.8573 34.2576 88.8573 30.4919V29.0798H88.7113C87.7477 30.2565 85.908 31.3156 83.572 31.3156C78.6954 31.3156 74.2277 27.0352 74.2277 21.5191C74.2277 15.9735 78.6954 11.6489 83.572 11.6489C85.8934 11.6489 87.7477 12.6933 88.7113 13.8407H88.8573V12.4285ZM89.1493 21.5191C89.1493 18.0476 86.8571 15.5175 83.937 15.5175C80.9877 15.5175 78.5056 18.0476 78.5056 21.5191C78.5056 24.9464 80.9877 27.4323 83.937 27.4323C86.8571 27.447 89.1493 24.9464 89.1493 21.5191Z" fill="#3686F7"/>
<path d="M51.1445 21.4455C51.1445 27.1086 46.7643 31.2715 41.3914 31.2715C36.0184 31.2715 31.6383 27.0939 31.6383 21.4455C31.6383 15.7528 36.0184 11.6047 41.3914 11.6047C46.7643 11.6047 51.1445 15.7528 51.1445 21.4455ZM46.8811 21.4455C46.8811 17.9151 44.3407 15.4881 41.3914 15.4881C38.4421 15.4881 35.9016 17.9151 35.9016 21.4455C35.9016 24.9463 38.4421 27.4028 41.3914 27.4028C44.3407 27.4028 46.8811 24.9463 46.8811 21.4455Z" fill="#FF302F"/>
<path d="M95.486 1.64639H99.6909V30.4183H95.486V1.64639Z" fill="#20B15A"/>
<path d="M15.6071 27.0057C9.4895 27.0057 4.70057 22.0338 4.70057 15.8705C4.70057 9.70719 9.4895 4.73535 15.6071 4.73535C18.9068 4.73535 21.3158 6.04451 23.0971 7.7214L26.0318 4.76477C23.5497 2.36711 20.2354 0.543121 15.6071 0.543121C7.22644 0.543121 0.174438 7.42721 0.174438 15.8705C0.174438 24.3138 7.22644 31.1979 15.6071 31.1979C20.1332 31.1979 23.5497 29.6975 26.2216 26.9027C28.9665 24.1373 29.8133 20.254 29.8133 17.1061C29.8133 16.1206 29.6965 15.1056 29.5651 14.3554H15.6071V18.4447H25.55C25.258 21.0042 24.4549 22.7546 23.2723 23.9461C21.8415 25.4023 19.5784 27.0057 15.6071 27.0057Z" fill="#3686F7"/>
</g>
<defs>
<clipPath id="clip0_1_235">
<rect width="120" height="39.6694" fill="white" transform="translate(0 0.481934)"/>
</clipPath>
</defs>
</svg>
