<svg width="146" height="47" viewBox="0 0 146 47" fill="none" xmlns="http://www.w3.org/2000/svg">
<g clip-path="url(#clip0_1_254)">
<path d="M31.315 9.95004C31.2912 9.73598 31.1007 9.64085 30.9578 9.64085C30.815 9.64085 27.6954 9.40301 27.6954 9.40301C27.6954 9.40301 25.5283 7.23867 25.2664 7.02462C25.0282 6.78678 24.5758 6.85813 24.3853 6.9057C24.3614 6.9057 23.909 7.0484 23.1707 7.28624C22.4325 5.16947 21.1704 3.24297 18.9081 3.24297H18.6938C18.0746 2.43432 17.2649 2.05377 16.5982 2.05377C11.3591 2.05377 8.83489 8.59436 8.04903 11.9241C6.00105 12.5663 4.54842 12.9944 4.38172 13.0657C3.23866 13.4225 3.21485 13.4463 3.07197 14.5166C2.9529 15.3252 -0.023819 38.3243 -0.023819 38.3243L23.1469 42.653L35.7206 39.9416C35.7444 39.894 31.3389 10.1641 31.315 9.95004ZM21.8848 7.61922C21.3133 7.7857 20.6227 7.99976 19.9321 8.2376V7.80948C19.9321 6.52515 19.7654 5.47866 19.4558 4.64622C20.6465 4.78893 21.3847 6.09704 21.8848 7.61922ZM18.0032 4.90785C18.3127 5.7165 18.5271 6.85813 18.5271 8.42787V8.66571C17.2411 9.07004 15.8837 9.47436 14.4787 9.92625C15.2646 6.92948 16.7649 5.45488 18.0032 4.90785ZM16.4791 3.43324C16.7172 3.43324 16.9554 3.52837 17.1459 3.67108C15.4551 4.45595 13.6691 6.43002 12.9308 10.4257C11.8116 10.7825 10.74 11.0917 9.71599 11.4246C10.5733 8.3803 12.7165 3.43324 16.4791 3.43324Z" fill="#95BF47"/>
<path d="M18.9081 16.5382L17.384 21.1285C17.384 21.1285 16.0028 20.3912 14.3597 20.3912C11.9069 20.3912 11.7878 21.9372 11.7878 22.3177C11.7878 24.4107 17.265 25.2193 17.265 30.1426C17.265 34.0194 14.8121 36.5167 11.502 36.5167C7.50133 36.5167 5.50098 34.0432 5.50098 34.0432L6.57259 30.5232C6.57259 30.5232 8.6682 32.3307 10.4304 32.3307C11.5973 32.3307 12.0736 31.427 12.0736 30.761C12.0736 28.0258 7.59658 27.9069 7.59658 23.388C7.59658 19.6063 10.3113 15.9436 15.8123 15.9436C17.8603 15.9198 18.9081 16.5382 18.9081 16.5382Z" fill="white"/>
<path d="M50.3899 25.1717C49.1277 24.5058 48.4848 23.9112 48.4848 23.1263C48.4848 22.1274 49.3897 21.4852 50.7947 21.4852C52.4378 21.4852 53.8905 22.1512 53.8905 22.1512L55.0335 18.6549C55.0335 18.6549 53.9857 17.8463 50.8899 17.8463C46.5797 17.8463 43.5791 20.3198 43.5791 23.7923C43.5791 25.7663 44.9841 27.2647 46.8416 28.335C48.3657 29.1674 48.8896 29.7858 48.8896 30.6896C48.8896 31.6172 48.1276 32.3783 46.7225 32.3783C44.6508 32.3783 42.6742 31.308 42.6742 31.308L41.4597 34.8042C41.4597 34.8042 43.2696 36.0172 46.3177 36.0172C50.7471 36.0172 53.9619 33.8291 53.9619 29.9047C53.9143 27.7642 52.3188 26.2896 50.3899 25.1717ZM68.0596 17.7987C65.8688 17.7987 64.1542 18.8452 62.8444 20.415L62.7968 20.3912L64.7019 10.497H59.7725L54.9621 35.708H59.8915L61.5347 27.0982C62.1777 23.8398 63.8684 21.8182 65.4401 21.8182C66.5594 21.8182 66.988 22.5793 66.988 23.6496C66.988 24.3155 66.9404 25.1717 66.7737 25.8377L64.9162 35.708H69.8457L71.7746 25.5285C71.9889 24.4582 72.1318 23.1739 72.1318 22.2939C72.108 19.4636 70.6553 17.7987 68.0596 17.7987ZM83.2766 17.7987C77.3232 17.7987 73.3939 23.1501 73.3939 29.1199C73.3939 32.9253 75.7515 36.0172 80.1808 36.0172C86.0152 36.0172 89.9445 30.8085 89.9445 24.6961C89.9683 21.1523 87.9203 17.7987 83.2766 17.7987ZM80.8476 32.2594C79.1568 32.2594 78.4662 30.8323 78.4662 29.0247C78.4662 26.1945 79.9189 21.6041 82.6098 21.6041C84.3482 21.6041 84.9436 23.1263 84.9436 24.5771C84.9436 27.5977 83.4433 32.2594 80.8476 32.2594ZM102.59 17.7987C99.2556 17.7987 97.3743 20.7479 97.3743 20.7479H97.3267L97.6125 18.1079H93.2308C93.0164 19.8917 92.6116 22.6269 92.2306 24.6485L88.8252 42.7005H93.7547L95.1358 35.3988H95.2549C95.2549 35.3988 96.2789 36.041 98.1364 36.041C103.947 36.041 107.733 30.095 107.733 24.1015C107.709 20.7717 106.209 17.7987 102.59 17.7987ZM97.8744 32.3069C96.5885 32.3069 95.8264 31.5696 95.8264 31.5696L96.6361 26.9793C97.2076 23.8874 98.827 21.8658 100.542 21.8658C102.066 21.8658 102.518 23.269 102.518 24.5771C102.542 27.7642 100.637 32.3069 97.8744 32.3069ZM114.758 10.7349C113.187 10.7349 111.925 11.9954 111.925 13.589C111.925 15.0398 112.853 16.0625 114.258 16.0625H114.306C115.854 16.0625 117.164 15.016 117.187 13.2084C117.211 11.7576 116.235 10.7349 114.758 10.7349ZM107.852 35.6843H112.782L116.116 18.1793H111.162L107.852 35.6843ZM128.689 18.1555H125.26L125.427 17.3468C125.713 15.6582 126.713 14.1836 128.38 14.1836C129.261 14.1836 129.952 14.4452 129.952 14.4452L130.904 10.5684C130.904 10.5684 130.071 10.1403 128.213 10.1403C126.475 10.1403 124.712 10.6398 123.379 11.7814C121.688 13.2084 120.902 15.2776 120.521 17.3706L120.378 18.1793H118.068L117.33 21.9133H119.64L117.021 35.708H121.95L124.57 21.9133H127.975L128.689 18.1555ZM140.572 18.1793C140.572 18.1793 137.477 25.9566 136.119 30.2139H136.072C135.976 28.8345 134.857 18.1793 134.857 18.1793H129.666L132.642 34.2096C132.69 34.5664 132.666 34.7805 132.523 35.0183C131.952 36.1361 130.976 37.2064 129.832 37.9913C128.904 38.6572 127.856 39.1091 127.022 39.3946L128.404 43.5805C129.404 43.3665 131.499 42.534 133.238 40.8929C135.476 38.7999 137.572 35.5415 139.715 31.1177L145.74 18.1555H140.572V18.1793Z" fill="black"/>
<path d="M30.9578 9.59329C30.815 9.59329 27.6954 9.35545 27.6954 9.35545C27.6954 9.35545 25.5283 7.19111 25.2664 6.97706C25.1711 6.88192 25.052 6.83435 24.9568 6.83435L23.2184 42.653L35.792 39.9416C35.792 39.9416 31.3865 10.1641 31.3627 9.95005C31.2674 9.73599 31.1007 9.64086 30.9578 9.59329Z" fill="#5E8E3E"/>
</g>
<defs>
<clipPath id="clip0_1_254">
<rect width="145.74" height="45.6652" fill="white" transform="translate(0 0.484039)"/>
</clipPath>
</defs>
</svg>
