<svg width="180" height="39" viewBox="0 0 180 39" fill="none" xmlns="http://www.w3.org/2000/svg">
<g clip-path="url(#clip0_1_243)">
<path fill-rule="evenodd" clip-rule="evenodd" d="M96.2326 27.0739C94.2764 29.0321 91.9362 30.0164 89.2241 30.0164C87.0307 30.0164 85.1669 29.5753 83.2647 28.4851V23.996C84.7952 25.0199 86.7177 25.9947 88.6135 25.9947C92.5697 25.9947 94.9244 23.3089 94.9244 19.5027C94.9244 15.6934 92.489 12.928 88.5312 12.928C86.7636 12.928 85.3309 13.5551 84.2118 14.8113C83.012 16.1724 82.3918 18.1179 82.3918 20.69V38.4159H82.0938C79.9132 38.4159 78.1467 36.6728 78.1467 34.5223V20.0249C78.1467 13.8728 81.9592 8.90583 88.512 8.90583C91.7476 8.90583 94.3753 9.99713 96.3678 12.1898C98.2412 14.2385 99.1696 16.8343 99.1696 19.958C99.1696 22.7377 98.1899 25.1147 96.2326 27.0739ZM142.196 26.9237C140.247 28.9873 137.74 30.0164 134.7 30.0164C131.491 30.0164 128.876 28.9251 126.885 26.7325C125.013 24.6584 124.084 22.0605 124.084 18.9647C124.084 13.485 128.371 8.90583 134.013 8.90583C136.19 8.90583 138.079 9.359 139.988 10.3918V14.9267C138.458 13.9029 136.536 12.928 134.64 12.928C130.684 12.928 128.328 15.6133 128.328 19.4211C128.328 23.1766 130.821 25.9947 134.721 25.9947C136.487 25.9947 137.941 25.3418 139.105 24.0266C140.261 22.7198 140.862 20.7996 140.862 18.2202V4.11113C140.862 1.96013 142.629 0.217513 144.809 0.217513H145.107V18.882C145.107 22.1691 144.143 24.8597 142.196 26.9237ZM154.184 6.91344C153.738 7.40561 153.1 7.63219 152.321 7.63219C150.863 7.63219 149.821 6.57197 149.821 5.14553C149.821 3.68535 150.844 2.69996 152.321 2.69996C153.742 2.69996 154.821 3.7391 154.821 5.14553C154.821 5.8411 154.614 6.4376 154.184 6.91344ZM175.754 18.2202C175.754 16.5692 175.121 15.2624 173.849 14.2723C172.703 13.3812 171.272 12.928 169.53 12.928C165.688 12.928 163.221 15.891 163.221 19.5444C163.221 23.0607 165.836 25.9947 169.49 25.9947C172.032 25.9947 173.391 24.5303 174.84 22.7061V27.966C174.102 28.512 173.252 29.1069 172.385 29.4563C171.47 29.833 170.378 30.0164 169.116 30.0164C163.005 30.0164 158.976 25.0241 158.976 19.2551C158.976 16.2926 159.909 13.8433 161.787 11.9337C163.779 9.90966 166.393 8.90583 169.593 8.90583C175.66 8.90583 180 12.3421 180 18.5511V29.6027H179.703C177.521 29.6027 175.754 27.8596 175.754 25.7086V18.2202ZM117.641 17.034C117.104 15.3973 116.432 14.5921 114.885 13.74C111.206 11.7123 107.585 13.4386 105.901 17.0182L117.641 17.034ZM114.401 29.9547C111.69 30.5233 109.029 30.0849 106.433 28.6537C103.901 27.2589 102.205 25.1843 101.355 22.4431C99.637 16.8991 103.157 10.7212 108.819 9.22515C111.626 8.48374 114.316 8.81941 116.873 10.2285C121.119 12.5702 122.667 16.1919 122.397 20.8586L105.293 20.8249C105.546 22.7282 106.742 24.2173 108.423 25.1437C110.128 26.0833 111.695 26.3077 113.149 25.863C114.764 25.3629 116.073 24.063 117.139 22.8531L120.624 25.3582C119.203 27.8675 117.267 29.353 114.401 29.9548V29.9547ZM150.198 9.32001H154.443V29.6027H154.144C151.966 29.6027 150.198 27.8596 150.198 25.7086V9.32001ZM6.21259 29.6026C2.06036 29.6026 0 26.8167 0 22.9262V8.16589C0 6.01541 1.76762 4.27227 3.94764 4.27227H4.24571V9.3199H11.4182V13.3421H4.24571V23.392C4.24571 25.1009 5.01868 25.581 6.67413 25.581H11.4182V29.6026H6.21259ZM30.8669 27.039C28.7697 29.0225 26.2489 30.0163 23.3204 30.0163C20.4193 30.0163 17.9129 29.0214 15.8157 27.039C13.7115 25.0482 12.6624 22.5147 12.6624 19.4615C12.6624 13.5049 17.2735 8.90625 23.3204 8.90625C26.2227 8.90625 28.736 9.9085 30.8461 11.9056C32.9636 13.9086 34.0213 16.4347 34.0213 19.4615C34.0213 22.5147 32.9711 25.0482 30.8669 27.039ZM50.7146 14.2005C50.0917 15.2307 49.6088 15.9695 49.2691 16.4158C48.8946 16.9011 48.525 17.2889 48.1585 17.5571C51.1088 18.4972 52.2076 20.5133 52.2076 23.5169V29.6026H51.9096C49.7296 29.6026 47.9619 27.8595 47.9619 25.7085V23.93C47.9619 21.9851 47.0779 20.6656 44.9886 20.6656H41.1334V29.6026H40.8353C38.6553 29.6026 36.8893 27.8595 36.8893 25.7085V4.11102C36.8893 1.96002 38.6553 0.217407 40.8353 0.217407H41.1334V16.6023H42.3882C43.767 16.6023 44.6729 16.137 45.1932 15.257L48.7589 9.32096L53.596 9.31621L50.7146 14.2005ZM72.6285 27.039C70.5308 29.0225 68.0099 30.0163 65.0815 30.0163C62.1809 30.0163 59.6745 29.0214 57.5768 27.039C55.4726 25.0482 54.4235 22.5147 54.4235 19.4615C54.4235 13.5049 59.0345 8.90625 65.0815 8.90625C67.9843 8.90625 70.4971 9.9085 72.6077 11.9056C74.7252 13.9086 75.7824 16.4347 75.7824 19.4615C75.7824 22.5147 74.7327 25.0482 72.6285 27.039ZM69.5644 14.7411C68.394 13.5339 66.9085 12.9279 65.0815 12.9279C61.175 12.9279 58.8364 15.7376 58.8364 19.4615C58.8364 23.1338 61.2306 25.9946 65.0815 25.9946C68.9341 25.9946 71.3272 23.1338 71.3272 19.4615C71.3272 17.5118 70.7332 15.9473 69.5644 14.7411ZM27.8028 14.7411C26.6329 13.5339 25.1468 12.9279 23.3204 12.9279C19.4139 12.9279 17.0753 15.7376 17.0753 19.4615C17.0753 23.1338 19.4695 25.9946 23.3204 25.9946C27.1725 25.9946 29.5656 23.1338 29.5656 19.4615C29.5656 17.5118 28.9721 15.9473 27.8028 14.7411Z" fill="#42B549"/>
</g>
<defs>
<clipPath id="clip0_1_243">
<rect width="180" height="38.5714" fill="white" transform="translate(0 0.0309143)"/>
</clipPath>
</defs>
</svg>
