<svg width="120" height="36" viewBox="0 0 120 36" fill="none" xmlns="http://www.w3.org/2000/svg">
<g clip-path="url(#clip0_1_245)">
<path d="M32.3438 8.86009C27.8906 8.86009 24.4922 11.7788 23.0859 16.4486C20.9766 13.2965 19.4531 9.79406 18.3984 6.17493H13.5938V18.55C13.5938 21.0017 11.6016 22.9864 9.14062 22.9864C6.67969 22.9864 4.6875 21.0017 4.6875 18.55V6.29167H0V18.6668C0 23.6869 4.10156 27.8898 9.25781 27.8898C14.4141 27.8898 18.5156 23.8036 18.5156 18.6668V16.5654C19.4531 18.55 20.625 20.418 21.9141 22.1692L18.9844 35.8285H23.9062L26.0156 25.9051C27.8906 27.1893 30.1172 27.8898 32.4609 27.8898C37.7344 27.8898 41.9531 23.6869 41.9531 18.4333C41.8359 13.1797 37.6172 8.86009 32.3438 8.86009ZM32.3438 23.1032C30.3516 22.9864 28.4766 22.2859 26.9531 21.0017L27.3047 19.1338V19.017C27.6562 17.0323 28.8281 13.6467 32.2266 13.6467C34.8047 13.53 36.9141 15.6314 37.0312 18.1998C37.1484 20.7682 35.0391 22.8697 32.4609 22.9864L32.3438 23.1032Z" fill="#6FDA44"/>
<path d="M76.6406 8.86019C71.3672 8.86019 67.1484 13.0631 67.1484 18.3167C67.1484 23.5702 71.3672 27.7731 76.6406 27.7731C81.9141 27.7731 86.1328 23.5702 86.1328 18.3167C86.1328 13.0631 81.9141 8.86019 76.6406 8.86019ZM76.6406 23.9205C73.5938 23.9205 71.0156 21.4688 71.0156 18.3167C71.0156 15.1645 73.4766 12.7128 76.6406 12.7128C79.6875 12.7128 82.2656 15.1645 82.2656 18.1999C82.2656 21.3521 79.8047 23.9205 76.6406 23.9205ZM97.7344 13.4133C95.0391 13.4133 92.8125 15.6315 92.8125 18.3167V27.3061H88.7109V9.44392H92.8125V12.2458C93.9844 10.4946 95.9766 9.44392 98.0859 9.44392H99.375V13.4133H97.7344ZM56.4844 9.44392L59.5312 21.819L62.9297 9.44392H66.9141L61.7578 27.3061H57.6562L54.4922 14.8143L51.3281 27.3061H47.2266L42.0703 9.44392H46.0547L49.4531 21.819L52.6172 9.44392H56.4844ZM111.328 17.6162C114.375 15.9817 116.133 12.8296 116.133 9.32718H112.148C112.148 12.3626 109.688 14.6975 106.758 14.6975H106.172V0.804688H102.07V27.3061H106.172V18.9004H106.641C107.109 18.9004 107.578 19.1339 107.812 19.4841L113.555 27.3061H118.477L111.328 17.6162Z" fill="black"/>
</g>
<defs>
<clipPath id="clip0_1_245">
<rect width="120" height="35.0239" fill="white" transform="translate(0 0.804688)"/>
</clipPath>
</defs>
</svg>
