<svg width="170" height="37" viewBox="0 0 170 37" fill="none" xmlns="http://www.w3.org/2000/svg">
<g clip-path="url(#clip0_1_248)">
<path d="M19.0546 19.2161H36.3079V36.446H19.0546V19.2161Z" fill="#FFB900"/>
<path d="M0 19.2161H17.2533V36.446H0V19.2161Z" fill="#00A4EF"/>
<path d="M60.0066 21.071L58.9934 23.938H58.9089C58.7401 23.2915 58.4305 22.3077 57.9238 21.1272L52.4917 7.49505H47.1722V29.2222H50.6904V15.8149C50.6904 14.9717 50.6904 14.016 50.6623 12.8355C50.6341 12.2452 50.5778 11.7955 50.5497 11.4582H50.6341C50.803 12.3014 51 12.9198 51.1407 13.3133L57.6705 29.166H60.1474L66.6209 13.1728C66.7616 12.8074 66.9023 12.0766 67.043 11.4582H67.1275C67.043 13.0603 66.9868 14.4938 66.9586 15.3652V29.1379H70.702V7.43883H65.5795L60.0066 21.071ZM74.2483 13.5663H77.9073V29.1379H74.2483V13.5663ZM76.106 6.98911C75.4868 6.98911 74.9801 7.21397 74.5579 7.60748C74.1358 8.00098 73.9106 8.50692 73.9106 9.12528C73.9106 9.71554 74.1358 10.2215 74.5579 10.615C74.9801 11.0085 75.4868 11.2052 76.106 11.2052C76.7252 11.2052 77.2599 10.9804 77.654 10.615C78.0762 10.2215 78.3013 9.71554 78.3013 9.12528C78.3013 8.53503 78.0762 8.02909 77.654 7.60748C77.2881 7.21397 76.7533 6.98911 76.106 6.98911ZM90.8824 13.4257C90.207 13.2852 89.5033 13.2009 88.8278 13.2009C87.1672 13.2009 85.6473 13.5663 84.3808 14.2971C83.1142 15.0279 82.101 16.0397 81.4536 17.3046C80.7781 18.5975 80.4404 20.0872 80.4404 21.8018C80.4404 23.2915 80.7781 24.6126 81.4255 25.8212C82.0728 27.0017 82.9735 27.9573 84.1838 28.6038C85.3377 29.2503 86.6887 29.5876 88.2086 29.5876C89.9536 29.5876 91.4454 29.2222 92.6275 28.5476L92.6556 28.5195V25.1466L92.5149 25.259C91.9801 25.6525 91.3609 25.9898 90.7417 26.1866C90.0944 26.4114 89.5033 26.5239 88.9967 26.5239C87.5331 26.5239 86.3791 26.1023 85.5629 25.1747C84.7185 24.2753 84.2964 23.0385 84.2964 21.4926C84.2964 19.8905 84.7185 18.6256 85.5911 17.6981C86.4636 16.7705 87.6175 16.2927 89.0248 16.2927C90.2069 16.2927 91.4172 16.6862 92.5149 17.4732L92.6556 17.5857V14.016L92.6275 13.9879C92.149 13.7911 91.6142 13.5663 90.8824 13.4257ZM102.957 13.3133C102.056 13.3133 101.212 13.5944 100.48 14.1846C99.8609 14.6906 99.4387 15.4214 99.0728 16.2927H99.0447V13.5663H95.3858V29.1379H99.0447V21.1834C99.0447 19.8343 99.3262 18.71 99.9454 17.8948C100.565 17.0516 101.353 16.63 102.31 16.63C102.647 16.63 102.985 16.7143 103.407 16.7705C103.801 16.883 104.083 16.9954 104.28 17.1359L104.421 17.2484V13.5944L104.336 13.5663C104.083 13.3976 103.576 13.3133 102.957 13.3133ZM112.921 13.229C110.359 13.229 108.305 13.9879 106.869 15.4776C105.406 16.9673 104.702 19.0191 104.702 21.605C104.702 24.0223 105.434 25.9898 106.841 27.4233C108.248 28.8287 110.162 29.5595 112.555 29.5595C115.06 29.5595 117.058 28.8006 118.493 27.2828C119.957 25.765 120.661 23.7412 120.661 21.2396C120.661 18.7662 119.985 16.7986 118.606 15.3652C117.283 13.9317 115.341 13.229 112.921 13.229ZM115.848 25.2028C115.172 26.0741 114.103 26.4958 112.78 26.4958C111.457 26.4958 110.387 26.0741 109.627 25.1466C108.868 24.2753 108.502 23.0104 108.502 21.4083C108.502 19.7499 108.896 18.4851 109.627 17.5857C110.387 16.6862 111.429 16.2365 112.752 16.2365C114.046 16.2365 115.06 16.6581 115.791 17.5294C116.523 18.4008 116.917 19.6656 116.917 21.324C116.861 23.0104 116.551 24.3315 115.848 25.2028ZM128.823 20.031C127.669 19.5532 126.937 19.1878 126.599 18.8786C126.318 18.5975 126.177 18.204 126.177 17.6981C126.177 17.2765 126.346 16.8549 126.768 16.5738C127.19 16.2927 127.669 16.1522 128.373 16.1522C128.992 16.1522 129.639 16.2646 130.258 16.4332C130.877 16.6019 131.44 16.8549 131.891 17.1922L132.031 17.3046V13.8755L131.947 13.8474C131.525 13.6787 130.962 13.5101 130.286 13.3695C129.611 13.2571 128.992 13.2009 128.485 13.2009C126.74 13.2009 125.305 13.6225 124.179 14.55C123.053 15.4214 122.518 16.6019 122.518 17.9792C122.518 18.71 122.631 19.3564 122.884 19.8905C123.137 20.4245 123.503 20.9305 124.01 21.3521C124.517 21.7456 125.248 22.1953 126.262 22.6169C127.106 22.9823 127.753 23.2634 128.147 23.4882C128.541 23.7131 128.795 23.9661 128.992 24.1628C129.132 24.3877 129.217 24.6688 129.217 25.0342C129.217 26.0741 128.429 26.5801 126.824 26.5801C126.205 26.5801 125.558 26.4676 124.798 26.2147C124.038 25.9617 123.334 25.5963 122.743 25.1747L122.603 25.0623V28.6319L122.687 28.66C123.222 28.913 123.869 29.0817 124.657 29.2784C125.445 29.4189 126.149 29.5314 126.768 29.5314C128.654 29.5314 130.202 29.1098 131.3 28.1822C132.425 27.2828 133.017 26.1304 133.017 24.6407C133.017 23.6007 132.735 22.6731 132.116 21.9704C131.3 21.2959 130.286 20.5932 128.823 20.031ZM142.671 13.229C140.109 13.229 138.055 13.9879 136.619 15.4776C135.184 16.9673 134.452 19.0191 134.452 21.605C134.452 24.0223 135.184 25.9898 136.591 27.4233C137.998 28.8287 139.912 29.5595 142.305 29.5595C144.81 29.5595 146.808 28.8006 148.243 27.2828C149.707 25.765 150.411 23.7412 150.411 21.2396C150.411 18.7662 149.735 16.7986 148.356 15.3652C147.033 13.9317 145.091 13.229 142.671 13.229ZM145.57 25.2028C144.894 26.0741 143.824 26.4958 142.502 26.4958C141.151 26.4958 140.109 26.0741 139.349 25.1466C138.589 24.2753 138.224 23.0104 138.224 21.4083C138.224 19.7499 138.618 18.4851 139.349 17.5857C140.109 16.6862 141.151 16.2365 142.474 16.2365C143.74 16.2365 144.781 16.6581 145.513 17.5294C146.245 18.4008 146.639 19.6656 146.639 21.324C146.639 23.0104 146.273 24.3315 145.57 25.2028ZM169.972 16.5738V13.5663H166.285V8.95664L166.172 8.98475L162.682 10.0247L162.598 10.0528V13.5663H157.081V11.5987C157.081 10.6993 157.306 9.99662 157.7 9.5469C158.094 9.09718 158.685 8.87232 159.417 8.87232C159.924 8.87232 160.459 8.98475 161.05 9.23772L161.19 9.32204V6.14588L161.106 6.11778C160.599 5.94913 159.924 5.8367 159.051 5.8367C157.954 5.8367 156.997 6.08967 156.124 6.51128C155.252 6.98911 154.604 7.63558 154.126 8.50692C153.647 9.35015 153.394 10.3058 153.394 11.402V13.5663H150.833V16.5457H153.394V29.1379H157.081V16.5738H162.598V24.5844C162.598 27.873 164.146 29.5314 167.242 29.5314C167.748 29.5314 168.283 29.4471 168.79 29.3627C169.324 29.2503 169.719 29.1098 169.944 28.9973L169.972 28.9692V25.9617L169.831 26.0741C169.606 26.2147 169.409 26.3271 169.071 26.4114C168.79 26.4958 168.536 26.5239 168.339 26.5239C167.608 26.5239 167.101 26.3552 166.735 25.9336C166.397 25.5401 166.228 24.8936 166.228 23.938V16.5738H169.972Z" fill="#737373"/>
<path d="M19.0546 0.187256H36.3079V17.4172H19.0546V0.187256Z" fill="#7FBA00"/>
<path d="M0 0.187256H17.2533V17.4172H0V0.187256Z" fill="#F25022"/>
</g>
<defs>
<clipPath id="clip0_1_248">
<rect width="170" height="36.2587" fill="white" transform="translate(0 0.187256)"/>
</clipPath>
</defs>
</svg>
