<?xml version="1.0" standalone="no"?>
<!DOCTYPE svg PUBLIC "-//W3C//DTD SVG 20010904//EN"
 "http://www.w3.org/TR/2001/REC-SVG-20010904/DTD/svg10.dtd">
<svg version="1.0" xmlns="http://www.w3.org/2000/svg"
 width="25.000000pt" height="25.000000pt" viewBox="0 0 25.000000 25.000000"
 preserveAspectRatio="xMidYMid meet">

<g transform="translate(0.000000,25.000000) scale(0.100000,-0.100000)"
fill="#000000" stroke="none">
<path d="M71 232 c-92 -50 -89 -172 6 -217 46 -22 94 -13 132 26 97 97 -19
257 -138 191z m79 -52 c0 -13 7 -20 20 -20 15 0 20 -7 20 -26 0 -50 -15 -63
-75 -63 l-55 1 0 40 c0 32 3 39 18 36 24 -4 42 10 42 33 0 10 7 19 15 19 8 0
15 -9 15 -20z"/>
</g>
</svg>
